<svg width="17" height="16" viewBox="0 0 17 16" fill="none" xmlns="http://www.w3.org/2000/svg">
<path fill-rule="evenodd" clip-rule="evenodd" d="M8.79756 0C4.26577 0 0.595215 3.67055 0.595215 8.20235C0.595215 11.8319 2.94314 14.8975 6.20357 15.9843C6.61369 16.0561 6.76748 15.81 6.76748 15.5947C6.76748 15.3999 6.75723 14.754 6.75723 14.067C4.69639 14.4464 4.16324 13.5646 3.99919 13.1033C3.90691 12.8674 3.50705 12.1395 3.15845 11.9447C2.87137 11.7909 2.46125 11.4115 3.1482 11.4013C3.79413 11.391 4.25551 11.9959 4.40931 12.242C5.14752 13.4826 6.32661 13.134 6.79824 12.9187C6.87001 12.3855 7.08532 12.0267 7.32114 11.8216C5.49612 11.6166 3.58907 10.9091 3.58907 7.77173C3.58907 6.87972 3.90691 6.14151 4.42981 5.56735C4.34779 5.36229 4.06071 4.52155 4.51184 3.39372C4.51184 3.39372 5.19878 3.17841 6.76748 4.23446C7.42367 4.04991 8.12087 3.95763 8.81807 3.95763C9.51527 3.95763 10.2125 4.04991 10.8687 4.23446C12.4374 3.16816 13.1243 3.39372 13.1243 3.39372C13.5754 4.52155 13.2884 5.36229 13.2063 5.56735C13.7292 6.14151 14.0471 6.86947 14.0471 7.77173C14.0471 10.9194 12.1298 11.6166 10.3047 11.8216C10.6021 12.078 10.8584 12.5701 10.8584 13.3391C10.8584 14.4361 10.8482 15.3179 10.8482 15.5947C10.8482 15.81 11.0019 16.0664 11.4121 15.9843C13.0404 15.4346 14.4553 14.3881 15.4577 12.9921C16.4601 11.5961 16.9995 9.92095 16.9999 8.20235C16.9999 3.67055 13.3294 0 8.79756 0Z" fill="white"/>
</svg>
