<svg width="40" height="40" viewBox="0 0 40 40" fill="none" xmlns="http://www.w3.org/2000/svg">
<rect width="40" height="40" rx="20" fill="#FFCF00"/>
<path d="M30.2903 29.6318H33.7984V30.5673H30.2903C30.1633 30.5673 30.0564 30.6676 30.0564 30.7945C30.0564 30.9282 30.1633 31.0284 30.2903 31.0284H32.629C33.2772 31.0284 33.7984 31.5563 33.7984 32.2045C33.7984 32.8459 33.2772 33.3672 32.629 33.3672H29.1209V32.4383H32.629C32.756 32.4383 32.8629 32.3314 32.8629 32.2045C32.8629 32.0708 32.756 31.9706 32.629 31.9706H30.2903C29.6421 31.9706 29.1209 31.4494 29.1209 30.7945C29.1209 30.153 29.6421 29.6318 30.2903 29.6318Z" fill="#1E1E1E"/>
<path d="M27.5156 33.3672V28.6897H28.4511V33.3672H27.5156Z" fill="#1E1E1E"/>
<path d="M22.1712 31.0284C22.1712 30.26 22.7993 29.6318 23.5678 29.6318H26.8487V30.5673H23.5678C23.3139 30.5673 23.1067 30.7745 23.1067 31.0284V33.3672H22.1712V31.0284Z" fill="#1E1E1E"/>
<path d="M21.5043 33.3672H17.9962C17.348 33.3672 16.8268 32.8459 16.8268 32.2045C16.8268 31.5563 17.348 31.0284 17.9962 31.0284H20.5688C20.5688 30.7745 20.3616 30.5673 20.101 30.5673H16.8268V29.6318H20.101C20.8762 29.6318 21.5043 30.26 21.5043 31.0284V33.3672ZM17.7623 32.2045C17.7623 32.3314 17.8692 32.4383 17.9962 32.4383H20.5688V31.9706H17.9962C17.8692 31.9706 17.7623 32.0708 17.7623 32.2045Z" fill="#1E1E1E"/>
<path d="M13.8211 28.6964V29.6319H16.1599V30.5674H13.8211V31.9706C13.8211 32.2245 14.0283 32.4384 14.2889 32.4384H16.1599V33.3672H14.2889C13.5137 33.3672 12.8789 32.7457 12.8789 31.9706V30.5674H11.4824V29.6319H12.8789V28.6964H13.8211Z" fill="#1E1E1E"/>
<path d="M7.30732 29.6318H10.8154V30.5673H7.30732C7.18036 30.5673 7.07344 30.6676 7.07344 30.7945C7.07344 30.9282 7.18036 31.0284 7.30732 31.0284H9.64607C10.2942 31.0284 10.8154 31.5563 10.8154 32.2045C10.8154 32.8459 10.2942 33.3672 9.64607 33.3672H6.13794V32.4383H9.64607C9.77303 32.4383 9.87995 32.3314 9.87995 32.2045C9.87995 32.0708 9.77303 31.9706 9.64607 31.9706H7.30732C6.65915 31.9706 6.13794 31.4494 6.13794 30.7945C6.13794 30.153 6.65915 29.6318 7.30732 29.6318Z" fill="#1E1E1E"/>
<g clip-path="url(#clip0_64_112)">
<path d="M30.2476 17.0167C30.3306 22.5225 25.6161 27.3932 19.754 27.2983C14.2954 27.2102 9.6191 22.6363 9.65493 16.9269C9.69003 11.3814 14.239 6.69257 19.9297 6.68967C25.7197 6.68652 30.3342 11.4979 30.2476 17.0167ZM25.2399 16.9567C25.2501 17.5938 25.1995 18.1936 25.1225 18.7927C25.0228 19.5682 24.8531 20.3273 24.6207 21.0729C24.3567 21.9205 24.0168 22.7372 23.5918 23.5171C23.3163 24.0228 23.0159 24.5127 22.6768 24.9791C22.388 25.3761 22.0811 25.7578 21.7601 26.1289C21.7405 26.1517 21.6994 26.1751 21.7248 26.2078C21.7444 26.2332 21.7848 26.2173 21.8165 26.211C22.5328 26.066 23.2248 25.8435 23.8876 25.5376C24.9768 25.0346 25.9358 24.3491 26.7651 23.4794C27.1609 23.0642 27.5138 22.6181 27.8304 22.1418C28.3082 21.4233 28.6754 20.6505 28.932 19.8284C29.2602 18.7767 29.413 17.7 29.3549 16.5953C29.3382 16.2777 29.3183 15.9609 29.2721 15.6472C29.1702 14.9571 28.9942 14.2851 28.7449 13.6328C28.4222 12.7887 27.9839 12.0084 27.4366 11.2911C27.013 10.7361 26.5272 10.2384 25.9922 9.78846C25.4696 9.34913 24.9056 8.97298 24.3015 8.65637C23.7111 8.34726 23.0912 8.1115 22.4517 7.92827C22.2358 7.8663 22.0136 7.82685 21.7943 7.77698C21.7705 7.77166 21.7413 7.76173 21.7258 7.78207C21.7025 7.81305 21.7367 7.83217 21.7531 7.85226C21.8219 7.93625 21.8901 8.02049 21.9613 8.10255C22.4686 8.68759 22.9147 9.31718 23.3073 9.9838C23.3783 10.1041 23.4523 10.1506 23.5922 10.1426C24.1821 10.1085 24.735 10.2571 25.2491 10.5359C25.9779 10.9312 26.5339 11.4988 26.869 12.2637C27.1684 12.947 27.2432 13.6483 26.9791 14.3628C26.8092 14.8223 26.5182 15.1865 26.1053 15.455C25.8557 15.6174 25.5858 15.7266 25.2983 15.7953C25.2293 15.8118 25.1879 15.8403 25.1971 15.9173C25.2392 16.2736 25.2465 16.6311 25.2402 16.9565L25.2399 16.9567ZM23.7573 10.7666C23.6324 10.7637 23.5087 10.7722 23.3853 10.7947C22.7722 10.906 22.3207 11.227 22.0724 11.8084C21.8732 12.2751 21.8962 12.75 22.0443 13.2232C22.2392 13.8448 22.6274 14.3306 23.1469 14.7087C23.6266 15.058 24.1657 15.2521 24.7677 15.2403C24.802 15.2396 24.8492 15.2553 24.8664 15.2161C24.887 15.1686 24.8376 15.1452 24.8091 15.1217C24.4423 14.822 24.1768 14.448 24.0081 14.0085C23.9643 13.8942 23.8955 13.8477 23.7869 13.8209C23.4698 13.7427 23.2449 13.5464 23.1079 13.254C22.9285 12.8708 23.0312 12.4712 23.3536 12.2637C23.5012 12.1686 23.6644 12.1342 23.837 12.148C23.9181 12.1546 23.9568 12.127 23.9863 12.0476C24.1226 11.6813 24.3281 11.357 24.6014 11.0762C24.6895 10.9857 24.6868 10.9634 24.5692 10.9208C24.307 10.8262 24.0386 10.7608 23.7571 10.7671L23.7573 10.7666ZM23.7651 12.5595C23.53 12.5571 23.3722 12.7626 23.4402 12.9841C23.5034 13.1896 23.639 13.3317 23.8362 13.4111C24.0943 13.5149 24.3692 13.3573 24.3581 13.117C24.346 12.8514 24.0386 12.5624 23.7651 12.5595Z" fill="#808080"/>
<path d="M25.2402 16.9567C25.2467 16.6314 25.2392 16.2738 25.1971 15.9175C25.1879 15.8406 25.2293 15.812 25.2983 15.7955C25.5858 15.7268 25.8557 15.6174 26.1053 15.4552C26.518 15.1868 26.8092 14.8225 26.9791 14.3631C27.2432 13.6488 27.1684 12.9473 26.869 12.264C26.534 11.4991 25.9777 10.9312 25.2491 10.5362C24.735 10.2576 24.1824 10.1089 23.5922 10.1428C23.4523 10.1508 23.3783 10.1043 23.3073 9.98403C22.9147 9.31741 22.4689 8.68783 21.9613 8.10278C21.8901 8.02072 21.8218 7.93649 21.7531 7.85249C21.7366 7.8324 21.7023 7.81328 21.7258 7.7823C21.741 7.76196 21.7705 7.77189 21.7943 7.77721C22.0136 7.82708 22.2358 7.86677 22.4517 7.9285C23.0912 8.11173 23.7111 8.3475 24.3015 8.6566C24.9056 8.97297 25.4696 9.34936 25.9922 9.78869C26.5272 10.2384 27.013 10.7363 27.4366 11.2914C27.9841 12.0086 28.4225 12.789 28.7449 13.633C28.9942 14.2854 29.1702 14.9573 29.2721 15.6474C29.3183 15.9611 29.3384 16.278 29.3549 16.5955C29.413 17.7003 29.2602 18.7769 28.932 19.8287C28.6754 20.6507 28.3082 21.4233 27.8304 22.142C27.5135 22.6186 27.1606 23.0647 26.7651 23.4796C25.9358 24.3493 24.9766 25.035 23.8876 25.5378C23.2248 25.8438 22.5328 26.0662 21.8165 26.2112C21.7848 26.2177 21.7444 26.2335 21.7248 26.208C21.6994 26.1751 21.7405 26.1516 21.7601 26.1291C22.0811 25.7581 22.388 25.3763 22.6768 24.9794C23.0159 24.5129 23.3161 24.023 23.5918 23.5174C24.0168 22.7372 24.3567 21.9208 24.6207 21.0731C24.8531 20.3276 25.023 19.5682 25.1225 18.7929C25.1995 18.1941 25.2501 17.594 25.2399 16.9569L25.2402 16.9567Z" fill="#1E1E1E"/>
<path d="M23.7576 10.7666C24.0391 10.7603 24.3078 10.8257 24.5697 10.9203C24.6873 10.9629 24.6902 10.9852 24.6019 11.0757C24.3286 11.3565 24.1231 11.6806 23.9868 12.0471C23.9573 12.1265 23.9185 12.1541 23.8374 12.1475C23.6649 12.1337 23.502 12.1681 23.3541 12.2632C23.0316 12.4709 22.9288 12.8703 23.1084 13.2535C23.2454 13.5461 23.4702 13.7422 23.7873 13.8204C23.896 13.8473 23.9648 13.8937 24.0086 14.008C24.1773 14.4476 24.4426 14.8218 24.8095 15.1212C24.8381 15.1447 24.8875 15.1682 24.8669 15.2156C24.8497 15.255 24.8025 15.2393 24.7681 15.2398C24.1662 15.2514 23.6271 15.0575 23.1473 14.7082C22.6279 14.3302 22.2396 13.8446 22.0448 13.2228C21.8964 12.7498 21.8736 12.2749 22.0729 11.8079C22.3212 11.2265 22.7726 10.9056 23.3858 10.7942C23.509 10.7719 23.6329 10.7635 23.7576 10.7661V10.7666Z" fill="#1E1E1E"/>
<path d="M23.7653 12.5595C24.0389 12.5624 24.3465 12.8514 24.3584 13.117C24.3693 13.3576 24.0945 13.5149 23.8365 13.4111C23.6395 13.3317 23.5039 13.1896 23.4405 12.9841C23.3722 12.7626 23.5303 12.5571 23.7653 12.5595Z" fill="#1E1E1E"/>
</g>
<defs>
<clipPath id="clip0_64_112">
<rect width="20.5939" height="20.6101" fill="white" transform="translate(9.65518 6.68967)"/>
</clipPath>
</defs>
</svg>
